<svg width="54" height="54" viewBox="0 0 54 54" fill="none" xmlns="http://www.w3.org/2000/svg">
<g clip-path="url(#clip0_88_752)">
<path fill-rule="evenodd" clip-rule="evenodd" d="M38.1292 12.6414C41.7742 12.6414 45.6379 14.6475 48.3892 18.117C39.3712 23.1147 40.8373 36.1368 49.9498 39.6171C48.6943 42.4251 48.0949 43.6806 46.4803 46.1673C44.2258 49.6341 41.0533 53.9541 37.114 53.9919C33.6175 54.0243 32.7184 51.6888 27.9718 51.7158C23.2252 51.7428 22.2343 54.0324 18.7378 54C14.8012 53.9622 11.7907 50.0634 9.53623 46.5939C3.23443 36.8955 2.57563 25.515 6.46363 19.467C9.22573 15.1632 13.5808 12.6441 17.6794 12.6441C21.8509 12.6441 24.4726 14.958 27.9232 14.958C31.2712 14.958 33.307 12.6414 38.1292 12.6414ZM37.0708 0C37.5568 3.2805 36.223 6.4935 34.4707 8.7669C32.5942 11.2023 29.3623 13.0896 26.2357 12.9924C25.6687 9.8523 27.1321 6.6204 28.9087 4.4415C30.8608 2.0385 34.2088 0.1998 37.0708 0Z" fill="black"/>
</g>
<defs>
<clipPath id="clip0_88_752">
<rect width="54" height="54" fill="white"/>
</clipPath>
</defs>
</svg>
