<svg width="54" height="54" viewBox="0 0 54 54" fill="none" xmlns="http://www.w3.org/2000/svg">
<g clip-path="url(#clip0_88_1939)">
<path fill-rule="evenodd" clip-rule="evenodd" d="M6.51953 9.40605C19.0712 -5.20207 42.3452 -2.31757 51.0448 14.7453C44.9203 14.7476 35.3297 14.7442 30.1355 14.7453C26.3679 14.7464 23.9368 14.6609 21.302 16.0481C18.2049 17.6782 15.8683 20.6999 15.0527 24.2493L6.51953 9.40493V9.40605Z" fill="#EA4335"/>
<path fill-rule="evenodd" clip-rule="evenodd" d="M18.0166 27C18.0166 31.95 22.043 35.9775 26.9907 35.9775C31.9385 35.9775 35.9637 31.95 35.9637 27C35.9637 22.0489 31.9385 18.0203 26.9907 18.0203C22.043 18.0203 18.0166 22.0489 18.0166 27Z" fill="#4285F4"/>
<path fill-rule="evenodd" clip-rule="evenodd" d="M30.474 38.7518C25.4373 40.248 19.5423 38.5886 16.3136 33.0143C12.3259 26.1016 8.34753 19.1836 4.37845 12.2603C-5.9873 28.1475 2.94746 49.797 21.7642 53.4938L30.474 38.7518Z" fill="#34A853"/>
<path fill-rule="evenodd" clip-rule="evenodd" d="M35.3266 18.0203C39.5228 21.9218 40.4363 28.2398 37.5946 33.1391C35.4537 36.8291 28.6204 48.3615 25.3096 53.946C44.6967 55.1419 58.8312 36.1395 52.4479 18.0203H35.3266Z" fill="#FBBC05"/>
</g>
<defs>
<clipPath id="clip0_88_1939">
<rect width="54" height="54" fill="white"/>
</clipPath>
</defs>
</svg>
