<svg width="21" height="21" viewBox="0 0 21 21" fill="none" xmlns="http://www.w3.org/2000/svg">
<path d="M10.9016 1.45294C10.7852 1.36215 10.6417 1.31285 10.4941 1.31285C10.3464 1.31285 10.203 1.36215 10.0866 1.45294L0.65625 8.80622L1.47197 9.83784L2.625 8.93878V17.0625C2.62569 17.4104 2.7642 17.7438 3.01019 17.9898C3.25618 18.2358 3.58962 18.3743 3.9375 18.375H17.0625C17.4104 18.3743 17.7438 18.2358 17.9898 17.9898C18.2358 17.7438 18.3743 17.4104 18.375 17.0625V8.94469L19.528 9.84375L20.3438 8.81213L10.9016 1.45294ZM11.8125 17.0625H9.1875V11.8125H11.8125V17.0625ZM13.125 17.0625V11.8125C13.1247 11.4645 12.9863 11.1309 12.7402 10.8848C12.4941 10.6387 12.1605 10.5003 11.8125 10.5H9.1875C8.83951 10.5003 8.50587 10.6387 8.25981 10.8848C8.01374 11.1309 7.87535 11.4645 7.875 11.8125V17.0625H3.9375V7.91569L10.5 2.8035L17.0625 7.92225V17.0625H13.125Z" fill="black"/>
</svg>
