<svg width="54" height="54" viewBox="0 0 54 54" fill="none" xmlns="http://www.w3.org/2000/svg">
<path d="M32.7656 47.1622H12.3047C11.2562 47.1622 10.4062 46.3121 10.4062 45.2637V8.73633C10.4062 7.68786 11.2562 6.83789 12.3047 6.83789H32.7656C33.8141 6.83789 34.6641 7.68786 34.6641 8.73633V45.2637C34.6641 46.3121 33.8141 47.1622 32.7656 47.1622Z" fill="#3F5EAB"/>
<path d="M11.9531 10.1426H33.1172V42.7641H11.9531V10.1426Z" fill="url(#paint0_linear_88_1938)"/>
<path d="M25.5776 44.2741H19.4926C19.3935 44.2741 19.2954 44.2936 19.2039 44.3315C19.1124 44.3694 19.0293 44.425 18.9592 44.495C18.8892 44.5651 18.8336 44.6482 18.7957 44.7397C18.7578 44.8313 18.7383 44.9294 18.7383 45.0284C18.7383 45.1275 18.7578 45.2256 18.7957 45.3171C18.8336 45.4086 18.8892 45.4917 18.9592 45.5618C19.0293 45.6318 19.1124 45.6874 19.2039 45.7253C19.2954 45.7632 19.3935 45.7827 19.4926 45.7827H25.5776C25.7777 45.7827 25.9695 45.7032 26.111 45.5618C26.2525 45.4203 26.3319 45.2285 26.3319 45.0284C26.3319 44.9293 26.3124 44.8313 26.2745 44.7397C26.2366 44.6482 26.1811 44.565 26.111 44.495C26.041 44.425 25.9578 44.3694 25.8663 44.3315C25.7748 44.2936 25.6767 44.2741 25.5776 44.2741ZM24.205 8.2002H20.8653C20.3563 8.2002 20.3554 8.99121 20.8653 8.99121H24.205C24.714 8.99121 24.7148 8.2002 24.205 8.2002Z" fill="white"/>
<path d="M37.1716 47.2937H22.785C22.0478 47.2937 21.4502 46.696 21.4502 45.9588V20.2755C21.4502 19.5383 22.0478 18.9407 22.785 18.9407H37.1716C37.9088 18.9407 38.5065 19.5383 38.5065 20.2755V45.9588C38.5065 46.696 37.9088 47.2937 37.1716 47.2937Z" fill="#3F5EAB"/>
<path d="M22.5371 21.2642H37.4181V44.2011H22.5371V21.2642Z" fill="url(#paint1_linear_88_1938)"/>
<path d="M32.1175 45.2629H27.839C27.7693 45.2629 27.7004 45.2766 27.636 45.3033C27.5717 45.3299 27.5132 45.369 27.4639 45.4182C27.4147 45.4675 27.3756 45.526 27.349 45.5903C27.3223 45.6547 27.3086 45.7236 27.3086 45.7933C27.3086 45.8629 27.3223 45.9319 27.349 45.9962C27.3756 46.0606 27.4147 46.1191 27.4639 46.1683C27.5132 46.2176 27.5717 46.2566 27.636 46.2833C27.7004 46.3099 27.7693 46.3237 27.839 46.3237H32.1175C32.2582 46.3237 32.3931 46.2678 32.4925 46.1683C32.592 46.0688 32.6479 45.9339 32.6479 45.7933C32.6479 45.7236 32.6342 45.6546 32.6075 45.5903C32.5809 45.5259 32.5418 45.4675 32.4926 45.4182C32.4433 45.369 32.3848 45.3299 32.3205 45.3033C32.2561 45.2766 32.1872 45.2629 32.1175 45.2629ZM31.1524 19.8984H28.8041C28.4462 19.8984 28.4457 20.4546 28.8041 20.4546H31.1524C31.5103 20.4546 31.5108 19.8984 31.1524 19.8984Z" fill="white"/>
<path d="M42.5167 26.1968H31.0717C29.8191 26.1968 28.8037 27.2121 28.8037 28.4647V34.1342C28.8037 35.3868 29.8191 36.4022 31.0717 36.4022H33.4528L34.833 38.7929L36.2133 36.4022H42.5167C43.7693 36.4022 44.7847 35.3868 44.7847 34.1342V28.4647C44.7847 27.2121 43.7693 26.1968 42.5167 26.1968Z" fill="url(#paint2_linear_88_1938)"/>
<path d="M33.0613 32.0913C33.4845 32.0913 33.8276 31.7482 33.8276 31.3249C33.8276 30.9017 33.4845 30.5586 33.0613 30.5586C32.638 30.5586 32.2949 30.9017 32.2949 31.3249C32.2949 31.7482 32.638 32.0913 33.0613 32.0913Z" fill="#3F5EAB"/>
<path d="M36.8435 32.0913C37.2667 32.0913 37.6098 31.7482 37.6098 31.3249C37.6098 30.9017 37.2667 30.5586 36.8435 30.5586C36.4203 30.5586 36.0771 30.9017 36.0771 31.3249C36.0771 31.7482 36.4203 32.0913 36.8435 32.0913Z" fill="#3F5EAB"/>
<path d="M40.527 32.0911C40.9502 32.0911 41.2933 31.7481 41.2933 31.3249C41.2933 30.9017 40.9502 30.5586 40.527 30.5586C40.1038 30.5586 39.7607 30.9017 39.7607 31.3249C39.7607 31.7481 40.1038 32.0911 40.527 32.0911Z" fill="#3F5EAB"/>
<defs>
<linearGradient id="paint0_linear_88_1938" x1="9.08891" y1="39.8997" x2="35.9817" y2="13.007" gradientUnits="userSpaceOnUse">
<stop stop-color="#00FFFF"/>
<stop offset="1" stop-color="#FF7BAC"/>
</linearGradient>
<linearGradient id="paint1_linear_88_1938" x1="20.5232" y1="42.1872" x2="39.4322" y2="23.2782" gradientUnits="userSpaceOnUse">
<stop stop-color="#00FFFF"/>
<stop offset="1" stop-color="#FF7BAC"/>
</linearGradient>
<linearGradient id="paint2_linear_88_1938" x1="36.7942" y1="38.7929" x2="36.7942" y2="26.1968" gradientUnits="userSpaceOnUse">
<stop stop-color="#B3B3B3"/>
<stop offset="0.017" stop-color="#B9B9B9"/>
<stop offset="0.108" stop-color="#D2D2D2"/>
<stop offset="0.209" stop-color="#E6E6E6"/>
<stop offset="0.325" stop-color="#F4F4F4"/>
<stop offset="0.466" stop-color="#FDFDFD"/>
<stop offset="0.709" stop-color="white"/>
</linearGradient>
</defs>
</svg>
