<svg width="21" height="21" viewBox="0 0 21 21" fill="none" xmlns="http://www.w3.org/2000/svg">
<g clip-path="url(#clip0_3_18)">
<path d="M18.9642 16.2342C18.4017 15.7327 17.9092 15.1578 17.5 14.525C17.0533 13.6515 16.7856 12.6975 16.7125 11.7192V8.8375C16.7164 7.30077 16.1589 5.81553 15.1449 4.66082C14.1309 3.50611 12.7302 2.76142 11.2058 2.56667V1.81417C11.2058 1.60763 11.1238 1.40955 10.9777 1.26351C10.8317 1.11746 10.6336 1.03542 10.4271 1.03542C10.2205 1.03542 10.0225 1.11746 9.87643 1.26351C9.73038 1.40955 9.64833 1.60763 9.64833 1.81417V2.57833C8.13765 2.78712 6.75382 3.53632 5.75314 4.68715C4.75247 5.83797 4.20276 7.31246 4.20583 8.8375V11.7192C4.13277 12.6975 3.86504 13.6515 3.41833 14.525C3.01635 15.1564 2.53178 15.7312 1.9775 16.2342C1.91528 16.2888 1.86541 16.3561 1.83121 16.4316C1.79701 16.507 1.77927 16.5888 1.77917 16.6717V17.465C1.77917 17.6197 1.84063 17.7681 1.95002 17.8775C2.05942 17.9869 2.20779 18.0483 2.3625 18.0483H18.5792C18.7339 18.0483 18.8823 17.9869 18.9916 17.8775C19.101 17.7681 19.1625 17.6197 19.1625 17.465V16.6717C19.1624 16.5888 19.1447 16.507 19.1105 16.4316C19.0763 16.3561 19.0264 16.2888 18.9642 16.2342ZM2.9925 16.8817C3.53524 16.3574 4.0131 15.7698 4.41583 15.1317C4.97852 14.0767 5.30684 12.9127 5.37833 11.7192V8.8375C5.3552 8.15385 5.46987 7.47254 5.71553 6.83414C5.96118 6.19573 6.33279 5.61329 6.80823 5.12149C7.28367 4.62969 7.85321 4.2386 8.48294 3.97149C9.11267 3.70439 9.78971 3.56674 10.4738 3.56674C11.1578 3.56674 11.8348 3.70439 12.4646 3.97149C13.0943 4.2386 13.6638 4.62969 14.1393 5.12149C14.6147 5.61329 14.9863 6.19573 15.232 6.83414C15.4776 7.47254 15.5923 8.15385 15.5692 8.8375V11.7192C15.6407 12.9127 15.969 14.0767 16.5317 15.1317C16.9344 15.7698 17.4123 16.3574 17.955 16.8817H2.9925Z" fill="black"/>
<path d="M10.5 19.9967C10.8675 19.9882 11.2201 19.8501 11.4955 19.6067C11.7709 19.3633 11.9514 19.0303 12.005 18.6667H8.93667C8.99178 19.0402 9.18069 19.381 9.46826 19.6256C9.75583 19.8703 10.1225 20.0021 10.5 19.9967Z" fill="black"/>
</g>
<defs>
<clipPath id="clip0_3_18">
<rect width="21" height="21" fill="white"/>
</clipPath>
</defs>
</svg>
