<svg width="54" height="54" viewBox="0 0 54 54" fill="none" xmlns="http://www.w3.org/2000/svg">
<path d="M26.8277 34.3321H45.8247C54.8824 34.3321 54.7727 28.2698 51.7563 21.9501C47.643 13.7446 46.5967 13.7446 40.2602 13.7446H13.7622C7.42565 13.7446 6.3794 13.7446 2.26612 21.9501C-0.746069 28.2698 -0.859975 34.3321 8.19768 34.3321H27.1947" fill="#40C0E7"/>
<path d="M12.0487 16.0396V10.8548C12.0487 9.82963 12.8081 8.99854 13.7447 8.99854H40.2806C41.2172 8.99854 41.9723 9.82963 41.9723 10.8548V16.0354H12.0487V16.0396ZM48.5494 47.6001H5.37469C2.64094 47.6001 0.421875 45.3853 0.421875 42.6473V28.0884C0.421875 25.3504 2.64094 23.1356 5.37469 23.1356H48.5452C51.2831 23.1356 53.498 25.3546 53.498 28.0884V42.6473C53.5022 45.3853 51.2831 47.6001 48.5494 47.6001Z" fill="#196CA2"/>
<path d="M41.7278 50.5533H12.2725V40.5464C12.2725 39.1795 12.8589 38.0742 13.5803 38.0742H40.4157C41.1372 38.0742 41.7236 39.1838 41.7236 40.5464V50.5533H41.7278Z" fill="#2F2F2F"/>
<path d="M41.9426 15.9975C41.9426 14.4028 37.9812 13.1077 33.0917 13.1077H20.9164C16.0268 13.1077 12.0654 14.4028 12.0654 15.9975V16.1367C12.0654 17.7356 16.0311 17.5078 20.9164 17.5078H33.0917C37.9812 17.5078 41.9426 17.7356 41.9426 16.1367V15.9975Z" fill="#006CA0"/>
<path d="M39.0234 14.7656H15.293V4.64056C15.293 4.11743 15.7275 3.69556 16.2675 3.69556H38.0531C38.5889 3.69556 39.0277 4.11743 39.0277 4.64056V14.7656H39.0234Z" fill="white" stroke="#78A3AD" stroke-width="2.10938" stroke-miterlimit="10"/>
<path d="M41.1117 30.9529H12.9937C12.5719 30.9529 12.2344 30.5774 12.2344 30.1133V27.1518C12.2344 26.6877 12.5761 26.3123 12.9937 26.3123H41.1075C41.5294 26.3123 41.8669 26.6877 41.8669 27.1518V30.1133C41.8711 30.5774 41.5294 30.9529 41.1117 30.9529Z" fill="#2F2F2F"/>
<path d="M41.8662 52.1142V43.4236H36.9893L37.0104 48.8447C37.1876 49.5323 36.5337 50.1778 35.6646 50.1778H18.4479C17.5746 50.1778 16.9249 49.5323 17.1021 48.8447L17.1232 43.4236H12.2464V52.1142C11.9089 53.0001 12.7315 53.8945 13.879 53.8945H40.2293C41.381 53.8945 42.2037 53.0001 41.8662 52.1142Z" fill="#78A3AD"/>
<path d="M47.0391 27.8732C47.6659 27.8732 48.174 27.3651 48.174 26.7384C48.174 26.1116 47.6659 25.6035 47.0391 25.6035C46.4124 25.6035 45.9043 26.1116 45.9043 26.7384C45.9043 27.3651 46.4124 27.8732 47.0391 27.8732Z" fill="#F79329"/>
<path d="M47.0391 31.088C47.6659 31.088 48.174 30.58 48.174 29.9532C48.174 29.3264 47.6659 28.8184 47.0391 28.8184C46.4124 28.8184 45.9043 29.3264 45.9043 29.9532C45.9043 30.58 46.4124 31.088 47.0391 31.088Z" fill="#BDCF46"/>
<path d="M27.0716 33.3618C28.4067 33.3618 29.489 32.2795 29.489 30.9444C29.489 29.6094 28.4067 28.5271 27.0716 28.5271C25.7366 28.5271 24.6543 29.6094 24.6543 30.9444C24.6543 32.2795 25.7366 33.3618 27.0716 33.3618Z" fill="#2F2F2F"/>
</svg>
