<svg width="21" height="21" viewBox="0 0 21 21" fill="none" xmlns="http://www.w3.org/2000/svg">
<path d="M10.5008 1.29413C8.0601 1.29691 5.72016 2.2677 3.99433 3.99354C2.2685 5.71937 1.2977 8.05931 1.29492 10.5C1.29492 12.9596 2.25305 15.2709 3.99211 17.0087C4.84466 17.8664 5.85893 18.5465 6.97618 19.0095C8.09342 19.4725 9.29143 19.7092 10.5008 19.7059C12.9415 19.7031 15.2814 18.7323 17.0073 17.0065C18.7331 15.2806 19.7039 12.9407 19.7067 10.5C19.7039 8.05931 18.7331 5.71937 17.0073 3.99354C15.2814 2.2677 12.9415 1.29691 10.5008 1.29413ZM10.5008 2.60663C12.5935 2.60906 14.5998 3.44146 16.0796 4.92123C17.5593 6.401 18.3917 8.4073 18.3942 10.5C18.3924 12.4847 17.6393 14.3951 16.2863 15.8471C15.3931 14.7898 14.2302 13.9942 12.921 13.545C13.3755 13.1764 13.7421 12.7112 13.9942 12.183C14.2462 11.6549 14.3773 11.0773 14.3779 10.4921C14.3764 9.97468 14.2728 9.46262 14.073 8.98528C13.8732 8.50794 13.5812 8.07471 13.2138 7.71041C12.8463 7.3461 12.4105 7.05788 11.9315 6.86225C11.4524 6.66663 10.9395 6.56744 10.422 6.57038C9.90482 6.57193 9.39297 6.67546 8.91581 6.87507C8.43864 7.07467 8.00553 7.36642 7.64126 7.73362C7.27699 8.10082 6.98871 8.53625 6.79293 9.015C6.59715 9.49375 6.49771 10.0064 6.5003 10.5236C6.5003 11.7429 7.07255 12.8205 7.9493 13.5398C6.66678 13.9769 5.52288 14.7458 4.63392 15.7684C3.32671 14.3254 2.6042 12.447 2.60742 10.5C2.60985 8.4073 3.44226 6.401 4.92202 4.92123C6.40179 3.44146 8.40809 2.60906 10.5008 2.60663ZM10.4549 7.88288C11.8947 7.88288 13.0641 9.05363 13.0641 10.5236C13.0624 11.1998 12.7984 11.8488 12.3275 12.3341C11.8567 12.8193 11.2159 13.1029 10.5402 13.125C10.5021 13.125 10.4654 13.1171 10.4273 13.1171C10.3945 13.1171 10.363 13.1237 10.3302 13.125C9.65123 13.0984 9.00923 12.8089 8.53993 12.3175C8.07063 11.8262 7.81081 11.1716 7.81542 10.4921C7.81542 9.05363 8.98486 7.88288 10.4549 7.88288ZM10.3289 14.4349C10.3604 14.4362 10.3919 14.4454 10.4234 14.4454H10.4549C10.4837 14.4454 10.5074 14.4362 10.5362 14.4349C11.4519 14.4509 12.3532 14.6646 13.1785 15.0615C14.0038 15.4584 14.7335 16.0291 15.3177 16.7344C13.942 17.8091 12.2465 18.3931 10.5008 18.3934C8.71552 18.397 6.98263 17.7903 5.58942 16.674C6.17507 15.9856 6.90065 15.4298 7.71786 15.0437C8.53507 14.6576 9.42516 14.4501 10.3289 14.4349Z" fill="#231F20"/>
</svg>
